<svg width="252" height="252" viewBox="0 0 252 252" fill="none" xmlns="http://www.w3.org/2000/svg">
<path d="M120.202 34.2961L113.969 34.9076L113.187 26.7399L113.181 26.6763L113.159 26.6163L104.336 2.40643L110.351 1.83669L114.856 17.2372L115.834 17.1446L117.374 1.12853L123.393 0.558422L119.424 26.0014L119.414 26.0635L119.42 26.1261L120.202 34.2961Z" stroke="white"/>
<path d="M136.839 29.9979L136.839 29.9978L141.737 5.53444L141.737 5.53444L141.737 5.53177C141.978 4.29442 142.491 3.40693 143.244 2.88862C143.993 2.37231 145.068 2.16234 146.56 2.46L146.561 2.46017L154.934 4.11452C154.934 4.11456 154.934 4.11461 154.934 4.11465C156.427 4.4125 157.344 5.01828 157.841 5.78275C158.34 6.54928 158.474 7.56472 158.216 8.80038L158.216 8.80037L158.215 8.80566L153.356 33.3073C153.356 33.3074 153.356 33.3075 153.356 33.3076C153.111 34.5294 152.636 35.5399 151.847 36.1655C151.075 36.7781 149.915 37.0908 148.139 36.7365C148.138 36.7365 148.138 36.7365 148.138 36.7365L140.319 35.1609C140.319 35.1609 140.319 35.1609 140.318 35.1609C138.563 34.807 137.615 34.0745 137.137 33.2125C136.649 32.3328 136.594 31.2179 136.839 29.9979ZM148.451 7.97869L148.451 7.97865L148.446 7.9776C148.143 7.92274 147.829 7.94935 147.563 8.14798C147.317 8.33222 147.197 8.60392 147.127 8.83767L147.12 8.86026L147.116 8.88339L143.009 29.3609C142.952 29.611 142.89 29.9663 143.07 30.278C143.261 30.6073 143.618 30.7208 143.907 30.7825L143.907 30.7826L143.914 30.7839L146.478 31.2954C146.766 31.3566 147.14 31.3984 147.445 31.1604C147.591 31.0461 147.677 30.8999 147.733 30.77C147.787 30.6428 147.825 30.5015 147.856 30.3669L147.858 30.3597L147.859 30.3525L151.967 9.86787L151.967 9.86789L151.969 9.85924C152.016 9.5983 152.027 9.28741 151.865 9.00709C151.697 8.71726 151.413 8.57509 151.134 8.49922L151.116 8.49434L151.098 8.4908L148.451 7.97869Z" stroke="white"/>
<path d="M166.367 43.3258L166.368 43.3261L172.644 46.7116C172.644 46.712 172.645 46.7124 172.646 46.7128C174.366 47.6181 175.576 47.8377 176.529 47.543C177.481 47.2482 178.327 46.3917 179.197 44.7529L179.198 44.7511L192.667 19.6262L187.349 16.7881L174.592 40.6085C174.478 40.8364 174.303 41.1494 173.982 41.2927C173.618 41.4557 173.255 41.3295 172.964 41.1736L166.367 43.3258ZM166.367 43.3258C164.646 42.4001 163.798 41.519 163.519 40.5721C163.241 39.6238 163.488 38.4545 164.359 36.8331L164.359 36.8328L177.829 11.7062L183.148 14.5446L170.39 38.3695L170.39 38.3694L170.384 38.3815C170.322 38.5049 170.26 38.6379 170.218 38.7712C170.176 38.9061 170.145 39.0715 170.174 39.2517C170.238 39.6458 170.541 39.8754 170.831 40.0309L170.832 40.0312L172.964 41.1733L166.367 43.3258Z" stroke="white"/>
<path d="M208.528 74.5263L208.527 74.5266C207.037 75.6462 205.909 76.0685 204.924 75.9375C203.94 75.8067 202.94 75.1026 201.76 73.5598C201.76 73.5596 201.76 73.5593 201.76 73.559L194.718 64.2702L221.369 44.2682L229.164 54.5835C229.164 54.584 229.164 54.5845 229.165 54.5849C229.913 55.586 230.139 56.5134 230 57.3266C229.859 58.1458 229.333 58.9391 228.397 59.6343L228.395 59.6355L208.528 74.5263ZM221.194 52.2484L220.893 51.8522L220.495 52.1512L202.681 65.545L202.281 65.8462L202.583 66.2461L204.518 68.8057C204.518 68.8058 204.518 68.8059 204.518 68.806C204.699 69.0471 204.957 69.3321 205.342 69.3586C205.533 69.3717 205.698 69.3158 205.828 69.2497C205.951 69.1869 206.067 69.1019 206.171 69.019L222.902 56.4646C223.139 56.304 223.356 56.0686 223.419 55.7434C223.485 55.4055 223.36 55.0954 223.167 54.8462L221.194 52.2484Z" stroke="white"/>
<path d="M245.142 85.9479L240.476 88.8394L237.97 82.4261L237.788 81.9609L237.322 82.1422L229.739 85.0967L229.273 85.2781L229.454 85.7439L231.327 90.5578L226.729 92.3596L224.856 87.5479L224.675 87.0821L224.209 87.2632L217.218 89.9814L216.752 90.1626L216.933 90.6288L219.322 96.7658L213.921 97.7967L209.477 86.5161L240.617 74.3916L245.142 85.9479Z" stroke="white"/>
<path d="M246.149 119.813L251.418 118.216L250.436 109.214L246.149 119.813ZM246.149 119.813L245.347 112.688L245.346 112.681L245.345 112.673C245.3 112.357 245.198 112.016 244.945 111.773C244.669 111.508 244.311 111.448 243.957 111.5L237.766 112.168L237.764 112.168C237.343 112.215 236.942 112.359 236.706 112.733C236.49 113.074 236.491 113.491 236.532 113.863C236.532 113.863 236.532 113.863 236.532 113.863L237.006 118.155C237.006 118.155 237.006 118.155 237.006 118.156C237.119 119.207 236.982 119.917 236.613 120.397C236.247 120.874 235.567 121.236 234.326 121.387L223.072 122.607L223.069 122.608C221.229 122.82 220.067 122.615 219.309 122.014C218.552 121.413 218.07 120.314 217.856 118.403L217.029 110.304L222.302 108.673L223.063 115.392C223.089 115.718 223.197 116.051 223.453 116.287C223.722 116.536 224.072 116.603 224.417 116.549L230.605 115.881L230.605 115.881L230.614 115.88C231.092 115.82 231.587 115.691 231.815 115.224C231.917 115.016 231.937 114.793 231.935 114.597C231.933 114.4 231.907 114.177 231.878 113.946L231.483 110.443L231.483 110.44C231.366 109.451 231.398 108.636 231.768 108.032C232.119 107.459 232.857 106.95 234.474 106.781L234.477 106.781L246.047 105.52C246.047 105.52 246.048 105.52 246.048 105.52C247.312 105.391 248.312 105.612 249.031 106.171C249.746 106.727 250.268 107.686 250.436 109.213L246.149 119.813Z" stroke="white"/>
<path d="M249.316 150.668L243.816 150.868L244.833 144.097L244.907 143.603L244.413 143.528L236.355 142.307L235.859 142.232L235.786 142.728L235.03 147.827L230.173 147.107L230.929 142.008L231.003 141.514L230.509 141.44L223.122 140.337L222.628 140.263L222.554 140.757L221.577 147.254L216.376 145.458L218.176 133.443L251.156 138.376L249.316 150.668Z" stroke="white"/>
<path d="M217.295 172.834L206.528 171.686L209.013 166.194L219.981 167.642L220.356 167.692L220.505 167.344L220.861 166.517L221.055 166.065L220.606 165.863L211.075 161.58L213.538 156.263L243.952 169.957L238.788 181.355C238.788 181.356 238.788 181.356 238.787 181.357C238.153 182.734 237.357 183.489 236.502 183.804C235.645 184.119 234.631 184.028 233.484 183.512C233.484 183.512 233.483 183.512 233.483 183.512L218.95 176.934C218.95 176.934 218.95 176.934 218.949 176.934C218.359 176.664 217.873 176.198 217.621 175.619C217.374 175.049 217.338 174.339 217.698 173.536L217.98 172.907L217.295 172.834ZM236.736 173.694L236.941 173.239L236.486 173.033L225.703 168.149L225.247 167.942L225.041 168.399L223.658 171.472L223.654 171.481L223.65 171.491C223.538 171.77 223.501 172.082 223.619 172.385C223.736 172.686 223.974 172.894 224.247 173.03L224.255 173.035L224.264 173.039L233.783 177.332C234.068 177.462 234.396 177.524 234.714 177.412C235.037 177.298 235.241 177.041 235.357 176.758L236.736 173.694Z" stroke="white"/>
<path d="M203.989 194.383L215.876 207.892L218.435 210.87L214.533 215.332L193.441 188.827L197.595 184.058L226.779 201.308L222.916 205.763L219.571 203.563L219.569 203.562L204.641 193.636L203.989 194.383Z" stroke="white"/>
<path d="M189.903 234.021L186.106 230.068L191.881 226.301L192.3 226.027L192.026 225.608L187.563 218.793L187.288 218.374L186.87 218.649L182.548 221.487L179.858 217.398L184.18 214.561L184.598 214.287L184.324 213.869L180.216 207.605L179.942 207.188L179.525 207.46L173.982 211.073L171.849 206.021L182.024 199.353L200.316 227.196L189.903 234.021Z" stroke="white"/>
<path d="M142.444 250.298L140.078 245.245L143.982 244.534L144.473 244.445L144.384 243.954L139.536 216.99L145.463 215.943L150.312 242.91L150.401 243.403L150.894 243.313L154.786 242.604L154.253 248.187L142.444 250.298Z" stroke="white"/>
<path d="M118.362 230.893L119.618 217.761L125.614 218.335L122.469 251.455L116.474 250.88L117.809 236.802L117.856 236.305L117.359 236.257L113.646 235.902L113.148 235.855L113.101 236.353L111.765 250.43L105.77 249.856L108.914 216.737L114.909 217.311L113.654 230.444L113.606 230.941L114.104 230.989L117.817 231.343L118.314 231.391L118.362 230.893Z" stroke="white"/>
<path d="M75.2612 240.693L76.2944 235.308L82.7282 237.773L83.1916 237.951L83.3726 237.489L86.335 229.925L86.5181 229.458L86.0499 229.276L81.2233 227.408L82.9955 222.826L87.8219 224.694L88.2889 224.875L88.4689 224.407L91.1548 217.435L91.3343 216.969L90.8688 216.789L84.7143 214.406L87.5779 209.756L98.9282 214.153L86.8872 245.169L75.2612 240.693Z" stroke="white"/>
<path d="M51.7391 188.025L51.7399 188.024C52.6245 187.142 53.5861 186.57 54.5915 186.49C55.5769 186.411 56.7145 186.797 57.9848 188.063C57.985 188.063 57.9852 188.064 57.9854 188.064L63.593 193.696L63.5942 193.697C64.8634 194.963 65.2397 196.095 65.1526 197.076C65.0636 198.078 64.4807 199.038 63.5944 199.922C63.5943 199.922 63.5943 199.922 63.5942 199.922L45.8602 217.53L45.8594 217.531C44.9711 218.417 44.0522 218.864 43.137 218.872C42.2246 218.881 41.2107 218.454 40.1278 217.374C40.1276 217.374 40.1275 217.374 40.1273 217.374L34.1247 211.348L34.1236 211.346C33.042 210.268 32.6246 209.259 32.6411 208.351C32.6577 207.439 33.1147 206.522 34.0046 205.634C34.0048 205.634 34.0049 205.633 34.0051 205.633L51.7391 188.025ZM58.1377 197.047L58.1386 197.046C58.3038 196.881 58.5493 196.627 58.5842 196.279C58.622 195.902 58.405 195.601 58.1946 195.37L58.1865 195.361L58.1781 195.353L56.3217 193.501C56.1177 193.298 55.828 193.055 55.4417 193.081C55.0849 193.104 54.8154 193.354 54.6283 193.54C54.6282 193.54 54.6282 193.541 54.6281 193.541L39.7776 208.273L39.7767 208.274C39.5869 208.463 39.396 208.72 39.3741 209.047C39.3509 209.395 39.5249 209.676 39.7372 209.888L41.6726 211.818C41.885 212.03 42.1658 212.203 42.5131 212.18C42.8401 212.158 43.0967 211.969 43.2867 211.779C43.2868 211.779 43.287 211.779 43.2872 211.779L58.1377 197.047Z" stroke="white"/>
<path d="M33.264 169.619L40.7268 161.806L43.5831 167.135L35.7873 174.948L35.5221 175.214L35.7034 175.542L36.1379 176.33L36.3764 176.763L36.8118 176.53L46.0093 171.605L48.7746 176.751L19.3612 192.47L13.4356 181.446L13.4346 181.444C12.7078 180.106 12.5968 179.018 12.874 178.152C13.1527 177.281 13.8562 176.531 14.9679 175.939L14.9686 175.939L28.9885 168.455C28.9889 168.455 28.9892 168.455 28.9895 168.455C29.5649 168.151 30.2297 168.049 30.8433 168.198C31.447 168.346 32.0361 168.746 32.4656 169.517L32.7956 170.109L33.264 169.619ZM20.7724 184.523L21.0106 184.957L21.4472 184.723L31.8748 179.129L32.3148 178.893L32.0794 178.453L30.5023 175.504C30.3622 175.228 30.1366 174.98 29.7944 174.895C29.4657 174.813 29.1447 174.91 28.8732 175.058C28.8727 175.058 28.8721 175.058 28.8716 175.059L19.6715 179.981L19.6685 179.983C19.3874 180.136 19.1398 180.358 19.0367 180.677C18.9315 181.002 19.0124 181.315 19.1537 181.57C19.154 181.57 19.1543 181.571 19.1546 181.571L20.7724 184.523Z" stroke="white"/>
<path d="M37.5837 151.976L5.29428 160.314L3.81034 154.663L36.0998 146.325L37.5837 151.976Z" stroke="white"/>
<path d="M7.18871 130.617V130.617L7.19838 130.616L27.5751 130.223C27.8527 130.222 28.1692 130.16 28.4084 129.932C28.6586 129.694 28.7257 129.371 28.7013 129.065L28.6227 125.968L28.6101 125.472L28.1141 125.48L15.1054 125.708L15.0047 120.049L33.8341 119.675L34.0612 131.151C34.0999 133.097 33.7452 134.265 33.0496 134.971C32.3514 135.679 31.1967 136.038 29.3378 136.077L29.3369 136.077L4.45553 136.55C4.45517 136.55 4.45481 136.55 4.45445 136.55C3.27742 136.568 2.36692 136.265 1.74606 135.708C1.13045 135.155 0.734226 134.294 0.697342 133.059L0.508318 123.708L5.87194 122.612L6.01725 129.531C6.01833 129.836 6.10573 130.15 6.37211 130.37C6.61879 130.573 6.92848 130.617 7.18871 130.617Z" stroke="white"/>
<path d="M35.4436 109.274L2.84718 102.198L4.09541 96.4782L36.6918 103.554L35.4436 109.274Z" stroke="white"/>
<path d="M25.8519 75.6579L13.9007 69.888L16.5449 64.4447L46.5712 78.9016L43.878 84.4458L29.7209 81.6449L29.4068 82.5858L41.8715 88.5925L39.5425 93.4042L9.51595 78.9089L11.9723 73.8392L25.5348 76.5981L25.8519 75.6579Z" stroke="white"/>
<path d="M53.1906 63.0867L52.8987 63.4069L53.1742 63.7414L55.6243 66.7162L51.6575 71.0748L31.0649 44.2265L35.4407 39.4085L64.1625 57.3454L60.1964 61.7033L57 59.5426L56.6418 59.3005L56.3505 59.62L53.1906 63.0867ZM49.6639 59.5323L50.0305 59.9634L50.4132 59.5465L52.5461 57.2222L52.9329 56.8007L52.4634 56.4738L42.3913 49.4618L41.7247 50.196L49.6639 59.5323Z" stroke="white"/>
<path d="M53.9341 23.4755L59.0538 20.2293L73.7165 43.3641L73.9841 43.7864L74.4064 43.5189L79.7437 40.1379L81.7751 45.2195L71.7268 51.547L53.9341 23.4755Z" stroke="white"/>
</svg>
